<svg class="svg-icon" style="width: 1em;height: 1em;vertical-align: middle;fill: currentColor;overflow: hidden;" viewBox="0 0 1024 1024" version="1.1" xmlns="http://www.w3.org/2000/svg"><path d="M512 128C323.413333 128 170.666667 204.373333 170.666667 298.666667s152.746667 170.666667 341.333333 170.666666 341.333333-76.373333 341.333333-170.666666-152.746667-170.666667-341.333333-170.666667M170.666667 384v128c0 94.293333 152.746667 170.666667 341.333333 170.666667s341.333333-76.373333 341.333333-170.666667V384c0 94.293333-152.746667 170.666667-341.333333 170.666667s-341.333333-76.373333-341.333333-170.666667m0 213.333333v128c0 94.293333 152.746667 170.666667 341.333333 170.666667s341.333333-76.373333 341.333333-170.666667v-128c0 94.293333-152.746667 170.666667-341.333333 170.666667s-341.333333-76.373333-341.333333-170.666667z" fill="#FFCA28" /></svg>