<?xml version="1.0" encoding="UTF-8"?>
<svg id="Layer_1" data-name="Layer 1" xmlns="http://www.w3.org/2000/svg" viewBox="0 0 1440 900">
  <defs>
    <style>
      .cls-1 {
        opacity: .15;
      }

      .cls-2 {
        fill: none;
        stroke: #231f20;
        stroke-miterlimit: 10;
        stroke-width: .5px;
      }
    </style>
  </defs>
  <g class="cls-1">
    <line class="cls-2" x1="0" y1="32.28" x2="1440" y2="32.28"/>
    <line class="cls-2" x1="0" y1="81.42" x2="1440" y2="81.42"/>
    <line class="cls-2" y1="130.56" x2="1440" y2="130.56"/>
    <line class="cls-2" y1="179.71" x2="1440" y2="179.71"/>
    <line class="cls-2" y1="228.85" x2="1440" y2="228.85"/>
    <line class="cls-2" y1="278" x2="1440" y2="278"/>
    <line class="cls-2" y1="327.14" x2="1440" y2="327.14"/>
    <line class="cls-2" y1="376.28" x2="1440" y2="376.28"/>
    <line class="cls-2" y1="425.43" x2="1440" y2="425.43"/>
    <line class="cls-2" y1="474.57" x2="1440" y2="474.57"/>
    <line class="cls-2" y1="523.72" x2="1440" y2="523.72"/>
    <line class="cls-2" y1="572.86" x2="1440" y2="572.86"/>
    <line class="cls-2" y1="622" x2="1440" y2="622"/>
    <line class="cls-2" y1="671.15" x2="1440" y2="671.15"/>
    <line class="cls-2" y1="720.29" x2="1440" y2="720.29"/>
    <line class="cls-2" y1="769.44" x2="1440" y2="769.44"/>
    <line class="cls-2" y1="818.58" x2="1440" y2="818.58"/>
    <line class="cls-2" y1="867.72" x2="1440" y2="867.72"/>
  </g>
  <g class="cls-1">
    <line class="cls-2" x1="0" y1="56.85" x2="1440" y2="56.85"/>
    <line class="cls-2" x1="0" y1="105.99" x2="1440" y2="105.99"/>
    <line class="cls-2" y1="155.14" x2="1440" y2="155.14"/>
    <line class="cls-2" y1="204.28" x2="1440" y2="204.28"/>
    <line class="cls-2" y1="253.42" x2="1440" y2="253.42"/>
    <line class="cls-2" y1="302.57" x2="1440" y2="302.57"/>
    <line class="cls-2" y1="351.71" x2="1440" y2="351.71"/>
    <line class="cls-2" y1="400.86" x2="1440" y2="400.86"/>
    <line class="cls-2" y1="450" x2="1440" y2="450"/>
    <line class="cls-2" y1="499.14" x2="1440" y2="499.14"/>
    <line class="cls-2" y1="548.29" x2="1440" y2="548.29"/>
    <line class="cls-2" y1="597.43" x2="1440" y2="597.43"/>
    <line class="cls-2" y1="646.58" x2="1440" y2="646.58"/>
    <line class="cls-2" y1="695.72" x2="1440" y2="695.72"/>
    <line class="cls-2" y1="744.86" x2="1440" y2="744.86"/>
    <line class="cls-2" y1="794.01" x2="1440" y2="794.01"/>
    <line class="cls-2" y1="843.15" x2="1440" y2="843.15"/>
    <line class="cls-2" y1="892.3" x2="1440" y2="892.3"/>
  </g>
  <g class="cls-1">
    <line class="cls-2" x1="42.73" x2="42.73" y2="900"/>
    <line class="cls-2" x1="139.49" x2="139.49" y2="900"/>
    <line class="cls-2" x1="236.24" x2="236.24" y2="900"/>
    <line class="cls-2" x1="332.99" x2="332.99" y2="900"/>
    <line class="cls-2" x1="429.74" x2="429.74" y2="900"/>
    <line class="cls-2" x1="526.5" x2="526.5" y2="900"/>
    <line class="cls-2" x1="623.25" x2="623.25" y2="900"/>
    <line class="cls-2" x1="720" x2="720" y2="900"/>
    <line class="cls-2" x1="816.75" x2="816.75" y2="900"/>
    <line class="cls-2" x1="913.5" x2="913.5" y2="900"/>
    <line class="cls-2" x1="1010.26" x2="1010.26" y2="900"/>
    <line class="cls-2" x1="1107.01" x2="1107.01" y2="900"/>
    <line class="cls-2" x1="1203.76" x2="1203.76" y2="900"/>
    <line class="cls-2" x1="1300.51" x2="1300.51" y2="900"/>
    <line class="cls-2" x1="1397.27" x2="1397.27" y2="900"/>
  </g>
  <g class="cls-1">
    <line class="cls-2" x1="90.48" x2="90.48" y2="900"/>
    <line class="cls-2" x1="187.23" x2="187.23" y2="900"/>
    <line class="cls-2" x1="283.98" x2="283.98" y2="900"/>
    <line class="cls-2" x1="380.74" x2="380.74" y2="900"/>
    <line class="cls-2" x1="477.49" x2="477.49" y2="900"/>
    <line class="cls-2" x1="574.24" x2="574.24" y2="900"/>
    <line class="cls-2" x1="670.99" x2="670.99" y2="900"/>
    <line class="cls-2" x1="767.75" x2="767.75" y2="900"/>
    <line class="cls-2" x1="864.5" x2="864.5" y2="900"/>
    <line class="cls-2" x1="961.25" x2="961.25" y2="900"/>
    <line class="cls-2" x1="1058" x2="1058" y2="900"/>
    <line class="cls-2" x1="1154.75" x2="1154.75" y2="900"/>
    <line class="cls-2" x1="1251.51" x2="1251.51" y2="900"/>
    <line class="cls-2" x1="1348.26" x2="1348.26" y2="900"/>
  </g>
</svg>